<mxfile host="app.diagrams.net" modified="2021-03-09T16:01:48.590Z" agent="5.0 (Windows NT 10.0; Win64; x64) AppleWebKit/537.36 (KHTML, like Gecko) Chrome/88.0.4324.190 Safari/537.36" etag="NJ4ojvzfj6nB6_gy_pB-" version="14.4.6" type="github">
  <diagram id="C5RBs43oDa-KdzZeNtuy" name="Page-1">
    <mxGraphModel dx="1618" dy="2417" grid="1" gridSize="10" guides="1" tooltips="1" connect="1" arrows="1" fold="1" page="1" pageScale="1" pageWidth="827" pageHeight="1169" math="0" shadow="0">
      <root>
        <mxCell id="WIyWlLk6GJQsqaUBKTNV-0" />
        <mxCell id="WIyWlLk6GJQsqaUBKTNV-1" parent="WIyWlLk6GJQsqaUBKTNV-0" />
        <UserObject label="" lucidchartObjectId="m~5buMDPWhfM" id="6CLfu5O3llIRonwA3SgG-70">
          <mxCell style="html=1;overflow=block;blockSpacing=1;whiteSpace=wrap;strokeColor=none;fillColor=none;whiteSpace=wrap;fontSize=13;spacing=0;strokeOpacity=100;rounded=1;absoluteArcSize=1;arcSize=9;strokeWidth=2.3;" vertex="1" parent="WIyWlLk6GJQsqaUBKTNV-1">
            <mxGeometry x="856" width="180" height="45" as="geometry" />
          </mxCell>
        </UserObject>
        <mxCell id="6CLfu5O3llIRonwA3SgG-71" value="Conta" style="html=1;overflow=block;blockSpacing=1;whiteSpace=wrap;swimlane;childLayout=stackLayout;horizontal=1;horizontalStack=0;resizeParent=1;resizeParentMax=0;resizeLast=0;collapsible=0;fontStyle=0;marginBottom=0;swimlaneFillColor=#ffffff;startSize=25;whiteSpace=wrap;fontSize=16.7;fontColor=#333333;whiteSpace=wrap;align=left;spacing=0;strokeColor=#5e5e5e;strokeOpacity=100;rounded=1;absoluteArcSize=1;arcSize=9;strokeWidth=2.3;" vertex="1" parent="WIyWlLk6GJQsqaUBKTNV-1">
          <mxGeometry x="580" y="300" width="270" height="207.25" as="geometry" />
        </mxCell>
        <mxCell id="6CLfu5O3llIRonwA3SgG-72" value="- id:int&#xa;- servico:Servico&#xa;- usuario:Usuario&#xa;- mensalidade:Mensalidade" style="part=1;html=1;whiteSpace=wrap;resizeHeight=0;strokeColor=none;fillColor=none;align=left;verticalAlign=middle;spacingLeft=4;spacingRight=4;overflow=hidden;rotatable=0;points=[[0,0.5],[1,0.5]];portConstraint=eastwest;swimlaneFillColor=#ffffff;strokeOpacity=100;fontSize=16.7;fontColor=#333333;" vertex="1" parent="6CLfu5O3llIRonwA3SgG-71">
          <mxGeometry y="25" width="270" height="82" as="geometry" />
        </mxCell>
        <mxCell id="6CLfu5O3llIRonwA3SgG-73" value="" style="line;strokeWidth=1;fillColor=none;align=left;verticalAlign=middle;spacingTop=-1;spacingLeft=3;spacingRight=3;rotatable=0;labelPosition=right;points=[];portConstraint=eastwest;" vertex="1" parent="6CLfu5O3llIRonwA3SgG-71">
          <mxGeometry y="107" width="270" height="8" as="geometry" />
        </mxCell>
        <mxCell id="6CLfu5O3llIRonwA3SgG-74" value="" style="part=1;html=1;whiteSpace=wrap;resizeHeight=0;strokeColor=none;fillColor=none;align=left;verticalAlign=middle;spacingLeft=4;spacingRight=4;overflow=hidden;rotatable=0;points=[[0,0.5],[1,0.5]];portConstraint=eastwest;swimlaneFillColor=#ffffff;strokeOpacity=100;fontSize=13;" vertex="1" parent="6CLfu5O3llIRonwA3SgG-71">
          <mxGeometry y="115" width="270" height="92.25" as="geometry" />
        </mxCell>
        <mxCell id="6CLfu5O3llIRonwA3SgG-75" value="Servico" style="html=1;overflow=block;blockSpacing=1;whiteSpace=wrap;swimlane;childLayout=stackLayout;horizontal=1;horizontalStack=0;resizeParent=1;resizeParentMax=0;resizeLast=0;collapsible=0;fontStyle=0;marginBottom=0;swimlaneFillColor=#ffffff;startSize=25;whiteSpace=wrap;fontSize=16.7;fontColor=#333333;whiteSpace=wrap;align=left;spacing=0;strokeColor=#5e5e5e;strokeOpacity=100;rounded=1;absoluteArcSize=1;arcSize=9;strokeWidth=2.3;" vertex="1" parent="WIyWlLk6GJQsqaUBKTNV-1">
          <mxGeometry x="820" y="540" width="270" height="187.25" as="geometry" />
        </mxCell>
        <mxCell id="6CLfu5O3llIRonwA3SgG-76" value="- id:int&#xa;- nome:String&#xa;- valor:BigDecimal" style="part=1;html=1;whiteSpace=wrap;resizeHeight=0;strokeColor=none;fillColor=none;align=left;verticalAlign=middle;spacingLeft=4;spacingRight=4;overflow=hidden;rotatable=0;points=[[0,0.5],[1,0.5]];portConstraint=eastwest;swimlaneFillColor=#ffffff;strokeOpacity=100;fontSize=16.7;fontColor=#333333;" vertex="1" parent="6CLfu5O3llIRonwA3SgG-75">
          <mxGeometry y="25" width="270" height="72" as="geometry" />
        </mxCell>
        <mxCell id="6CLfu5O3llIRonwA3SgG-77" value="" style="line;strokeWidth=1;fillColor=none;align=left;verticalAlign=middle;spacingTop=-1;spacingLeft=3;spacingRight=3;rotatable=0;labelPosition=right;points=[];portConstraint=eastwest;" vertex="1" parent="6CLfu5O3llIRonwA3SgG-75">
          <mxGeometry y="97" width="270" height="8" as="geometry" />
        </mxCell>
        <mxCell id="6CLfu5O3llIRonwA3SgG-78" value="" style="part=1;html=1;whiteSpace=wrap;resizeHeight=0;strokeColor=none;fillColor=none;align=left;verticalAlign=middle;spacingLeft=4;spacingRight=4;overflow=hidden;rotatable=0;points=[[0,0.5],[1,0.5]];portConstraint=eastwest;swimlaneFillColor=#ffffff;strokeOpacity=100;fontSize=13;" vertex="1" parent="6CLfu5O3llIRonwA3SgG-75">
          <mxGeometry y="105" width="270" height="82.25" as="geometry" />
        </mxCell>
        <mxCell id="6CLfu5O3llIRonwA3SgG-79" value="Usuario" style="html=1;overflow=block;blockSpacing=1;whiteSpace=wrap;swimlane;childLayout=stackLayout;horizontal=1;horizontalStack=0;resizeParent=1;resizeParentMax=0;resizeLast=0;collapsible=0;fontStyle=0;marginBottom=0;swimlaneFillColor=#ffffff;startSize=25;whiteSpace=wrap;fontSize=16.7;fontColor=#333333;whiteSpace=wrap;align=left;spacing=0;strokeColor=#5e5e5e;strokeOpacity=100;rounded=1;absoluteArcSize=1;arcSize=9;strokeWidth=2.3;" vertex="1" parent="WIyWlLk6GJQsqaUBKTNV-1">
          <mxGeometry x="310" y="532" width="300" height="187.25" as="geometry" />
        </mxCell>
        <mxCell id="6CLfu5O3llIRonwA3SgG-80" value="- id:int&#xa;- nome:String&#xa;- telefone:String" style="part=1;html=1;whiteSpace=wrap;resizeHeight=0;strokeColor=none;fillColor=none;align=left;verticalAlign=middle;spacingLeft=4;spacingRight=4;overflow=hidden;rotatable=0;points=[[0,0.5],[1,0.5]];portConstraint=eastwest;swimlaneFillColor=#ffffff;strokeOpacity=100;fontSize=16.7;fontColor=#333333;" vertex="1" parent="6CLfu5O3llIRonwA3SgG-79">
          <mxGeometry y="25" width="300" height="72" as="geometry" />
        </mxCell>
        <mxCell id="6CLfu5O3llIRonwA3SgG-81" value="" style="line;strokeWidth=1;fillColor=none;align=left;verticalAlign=middle;spacingTop=-1;spacingLeft=3;spacingRight=3;rotatable=0;labelPosition=right;points=[];portConstraint=eastwest;" vertex="1" parent="6CLfu5O3llIRonwA3SgG-79">
          <mxGeometry y="97" width="300" height="8" as="geometry" />
        </mxCell>
        <mxCell id="6CLfu5O3llIRonwA3SgG-82" value="" style="part=1;html=1;whiteSpace=wrap;resizeHeight=0;strokeColor=none;fillColor=none;align=left;verticalAlign=middle;spacingLeft=4;spacingRight=4;overflow=hidden;rotatable=0;points=[[0,0.5],[1,0.5]];portConstraint=eastwest;swimlaneFillColor=#ffffff;strokeOpacity=100;fontSize=13;" vertex="1" parent="6CLfu5O3llIRonwA3SgG-79">
          <mxGeometry y="105" width="300" height="82.25" as="geometry" />
        </mxCell>
        <mxCell id="6CLfu5O3llIRonwA3SgG-83" value="Pagamento" style="html=1;overflow=block;blockSpacing=1;whiteSpace=wrap;swimlane;childLayout=stackLayout;horizontal=1;horizontalStack=0;resizeParent=1;resizeParentMax=0;resizeLast=0;collapsible=0;fontStyle=0;marginBottom=0;swimlaneFillColor=#ffffff;startSize=25;whiteSpace=wrap;fontSize=16.7;fontColor=#333333;whiteSpace=wrap;align=left;spacing=0;strokeColor=#5e5e5e;strokeOpacity=100;rounded=1;absoluteArcSize=1;arcSize=9;strokeWidth=2.3;" vertex="1" parent="WIyWlLk6GJQsqaUBKTNV-1">
          <mxGeometry x="140" y="-60" width="340" height="240" as="geometry" />
        </mxCell>
        <mxCell id="6CLfu5O3llIRonwA3SgG-84" value="- id:long&#xa;- data:Date&#xa;- hora:Date&#xa;- usuario:Usuario&#xa;- valor:BigDecimal" style="part=1;html=1;whiteSpace=wrap;resizeHeight=0;strokeColor=none;fillColor=none;align=left;verticalAlign=middle;spacingLeft=4;spacingRight=4;overflow=hidden;rotatable=0;points=[[0,0.5],[1,0.5]];portConstraint=eastwest;swimlaneFillColor=#ffffff;strokeOpacity=100;fontSize=16.7;fontColor=#333333;" vertex="1" parent="6CLfu5O3llIRonwA3SgG-83">
          <mxGeometry y="25" width="340" height="145" as="geometry" />
        </mxCell>
        <mxCell id="6CLfu5O3llIRonwA3SgG-85" value="" style="line;strokeWidth=1;fillColor=none;align=left;verticalAlign=middle;spacingTop=-1;spacingLeft=3;spacingRight=3;rotatable=0;labelPosition=right;points=[];portConstraint=eastwest;" vertex="1" parent="6CLfu5O3llIRonwA3SgG-83">
          <mxGeometry y="170" width="340" height="8" as="geometry" />
        </mxCell>
        <mxCell id="6CLfu5O3llIRonwA3SgG-86" value="" style="part=1;html=1;whiteSpace=wrap;resizeHeight=0;strokeColor=none;fillColor=none;align=left;verticalAlign=middle;spacingLeft=4;spacingRight=4;overflow=hidden;rotatable=0;points=[[0,0.5],[1,0.5]];portConstraint=eastwest;swimlaneFillColor=#ffffff;strokeOpacity=100;fontSize=13;" vertex="1" parent="6CLfu5O3llIRonwA3SgG-83">
          <mxGeometry y="178" width="340" height="62" as="geometry" />
        </mxCell>
        <UserObject label="" lucidchartObjectId="~5UbCT8OLK2U" id="6CLfu5O3llIRonwA3SgG-87">
          <mxCell style="html=1;jettySize=18;whiteSpace=wrap;fontSize=13;strokeColor=#5E5E5E;strokeWidth=1.5;rounded=1;arcSize=12;edgeStyle=orthogonalEdgeStyle;startArrow=none;;endArrow=block;endFill=1;;exitX=0.5;exitY=-0.007;exitPerimeter=0;entryX=-0.004;entryY=0.5;entryPerimeter=0;" edge="1" parent="WIyWlLk6GJQsqaUBKTNV-1" source="6CLfu5O3llIRonwA3SgG-79" target="6CLfu5O3llIRonwA3SgG-71">
            <mxGeometry width="100" height="100" relative="1" as="geometry">
              <Array as="points" />
            </mxGeometry>
          </mxCell>
        </UserObject>
        <mxCell id="6CLfu5O3llIRonwA3SgG-88" value="0..*" style="text;html=1;resizable=0;labelBackgroundColor=#ffffff;align=center;verticalAlign=middle;;fontSize=13;" vertex="1" parent="6CLfu5O3llIRonwA3SgG-87">
          <mxGeometry x="-1" relative="1" as="geometry" />
        </mxCell>
        <mxCell id="6CLfu5O3llIRonwA3SgG-89" value="0..*" style="text;html=1;resizable=0;labelBackgroundColor=#ffffff;align=center;verticalAlign=middle;;fontSize=13;" vertex="1" parent="6CLfu5O3llIRonwA3SgG-87">
          <mxGeometry x="1" relative="1" as="geometry" />
        </mxCell>
        <UserObject label="" lucidchartObjectId="r6UbzXzOfj7q" id="6CLfu5O3llIRonwA3SgG-90">
          <mxCell style="html=1;jettySize=18;whiteSpace=wrap;fontSize=13;strokeColor=#5E5E5E;strokeWidth=1.5;rounded=1;arcSize=12;edgeStyle=orthogonalEdgeStyle;startArrow=none;;endArrow=block;endFill=1;;exitX=0.5;exitY=-0.007;exitPerimeter=0;entryX=1.004;entryY=0.5;entryPerimeter=0;" edge="1" parent="WIyWlLk6GJQsqaUBKTNV-1" source="6CLfu5O3llIRonwA3SgG-75" target="6CLfu5O3llIRonwA3SgG-71">
            <mxGeometry width="100" height="100" relative="1" as="geometry">
              <Array as="points" />
            </mxGeometry>
          </mxCell>
        </UserObject>
        <mxCell id="6CLfu5O3llIRonwA3SgG-91" value="0..*" style="text;html=1;resizable=0;labelBackgroundColor=#ffffff;align=center;verticalAlign=middle;;fontSize=13;" vertex="1" parent="6CLfu5O3llIRonwA3SgG-90">
          <mxGeometry x="-1" relative="1" as="geometry" />
        </mxCell>
        <mxCell id="6CLfu5O3llIRonwA3SgG-92" value="0..*" style="text;html=1;resizable=0;labelBackgroundColor=#ffffff;align=center;verticalAlign=middle;;fontSize=13;" vertex="1" parent="6CLfu5O3llIRonwA3SgG-90">
          <mxGeometry x="0.862661335210616" relative="1" as="geometry" />
        </mxCell>
        <mxCell id="6CLfu5O3llIRonwA3SgG-93" value="Mensalidade" style="html=1;overflow=block;blockSpacing=1;whiteSpace=wrap;swimlane;childLayout=stackLayout;horizontal=1;horizontalStack=0;resizeParent=1;resizeParentMax=0;resizeLast=0;collapsible=0;fontStyle=0;marginBottom=0;swimlaneFillColor=#ffffff;startSize=25;whiteSpace=wrap;fontSize=16.7;fontColor=#333333;whiteSpace=wrap;align=left;spacing=0;strokeColor=#5e5e5e;strokeOpacity=100;rounded=1;absoluteArcSize=1;arcSize=9;strokeWidth=2.3;" vertex="1" parent="WIyWlLk6GJQsqaUBKTNV-1">
          <mxGeometry x="560" y="-70" width="270" height="227.25" as="geometry" />
        </mxCell>
        <mxCell id="6CLfu5O3llIRonwA3SgG-94" value="- id:int = defaultValue&#xa;- mes:Date&#xa;- pagamentos: List&amp;lt;Pagamento&amp;gt;&#xa;- valor:BigDecimal" style="part=1;html=1;whiteSpace=wrap;resizeHeight=0;strokeColor=none;fillColor=none;align=left;verticalAlign=middle;spacingLeft=4;spacingRight=4;overflow=hidden;rotatable=0;points=[[0,0.5],[1,0.5]];portConstraint=eastwest;swimlaneFillColor=#ffffff;strokeOpacity=100;fontSize=16.7;fontColor=#333333;" vertex="1" parent="6CLfu5O3llIRonwA3SgG-93">
          <mxGeometry y="25" width="270" height="92" as="geometry" />
        </mxCell>
        <mxCell id="6CLfu5O3llIRonwA3SgG-95" value="" style="line;strokeWidth=1;fillColor=none;align=left;verticalAlign=middle;spacingTop=-1;spacingLeft=3;spacingRight=3;rotatable=0;labelPosition=right;points=[];portConstraint=eastwest;" vertex="1" parent="6CLfu5O3llIRonwA3SgG-93">
          <mxGeometry y="117" width="270" height="8" as="geometry" />
        </mxCell>
        <mxCell id="6CLfu5O3llIRonwA3SgG-96" value="" style="part=1;html=1;whiteSpace=wrap;resizeHeight=0;strokeColor=none;fillColor=none;align=left;verticalAlign=middle;spacingLeft=4;spacingRight=4;overflow=hidden;rotatable=0;points=[[0,0.5],[1,0.5]];portConstraint=eastwest;swimlaneFillColor=#ffffff;strokeOpacity=100;fontSize=13;" vertex="1" parent="6CLfu5O3llIRonwA3SgG-93">
          <mxGeometry y="125" width="270" height="102.25" as="geometry" />
        </mxCell>
        <UserObject label="" lucidchartObjectId="O8Ubi7JG_Lh0" id="6CLfu5O3llIRonwA3SgG-97">
          <mxCell style="html=1;jettySize=18;whiteSpace=wrap;fontSize=13;strokeColor=#5E5E5E;strokeWidth=1.5;rounded=1;arcSize=12;edgeStyle=orthogonalEdgeStyle;startArrow=block;startFill=1;;endArrow=none;;exitX=0.5;exitY=-0.006;exitPerimeter=0;entryX=0.5;entryY=1.006;entryPerimeter=0;" edge="1" parent="WIyWlLk6GJQsqaUBKTNV-1" source="6CLfu5O3llIRonwA3SgG-71" target="6CLfu5O3llIRonwA3SgG-93">
            <mxGeometry width="100" height="100" relative="1" as="geometry">
              <Array as="points" />
            </mxGeometry>
          </mxCell>
        </UserObject>
        <UserObject label="" lucidchartObjectId="Q8UbUqTwCDrm" id="6CLfu5O3llIRonwA3SgG-98">
          <mxCell style="html=1;jettySize=18;whiteSpace=wrap;fontSize=13;strokeColor=#5E5E5E;strokeWidth=1.5;rounded=1;arcSize=12;edgeStyle=orthogonalEdgeStyle;startArrow=none;;endArrow=block;endFill=1;;exitX=1.004;exitY=0.5;exitPerimeter=0;entryX=-0.004;entryY=0.5;entryPerimeter=0;" edge="1" parent="WIyWlLk6GJQsqaUBKTNV-1" source="6CLfu5O3llIRonwA3SgG-83" target="6CLfu5O3llIRonwA3SgG-93">
            <mxGeometry width="100" height="100" relative="1" as="geometry">
              <Array as="points" />
            </mxGeometry>
          </mxCell>
        </UserObject>
        <mxCell id="6CLfu5O3llIRonwA3SgG-99" value="0..*" style="text;html=1;resizable=0;labelBackgroundColor=#ffffff;align=center;verticalAlign=middle;;fontSize=13;" vertex="1" parent="6CLfu5O3llIRonwA3SgG-98">
          <mxGeometry x="-1" relative="1" as="geometry" />
        </mxCell>
        <mxCell id="6CLfu5O3llIRonwA3SgG-100" value="0..*" style="text;html=1;resizable=0;labelBackgroundColor=#ffffff;align=center;verticalAlign=middle;;fontSize=13;" vertex="1" parent="6CLfu5O3llIRonwA3SgG-98">
          <mxGeometry x="1" relative="1" as="geometry" />
        </mxCell>
        <UserObject label="" lucidchartObjectId="5oVbcabfHahg" id="6CLfu5O3llIRonwA3SgG-101">
          <mxCell style="html=1;jettySize=18;whiteSpace=wrap;fontSize=13;strokeColor=#5E5E5E;strokeWidth=1.5;rounded=1;arcSize=12;edgeStyle=orthogonalEdgeStyle;startArrow=none;;endArrow=block;endFill=1;;exitX=0.5;exitY=1.005;exitPerimeter=0;entryX=-0.004;entryY=0.5;entryPerimeter=0;" edge="1" parent="WIyWlLk6GJQsqaUBKTNV-1" source="6CLfu5O3llIRonwA3SgG-83" target="6CLfu5O3llIRonwA3SgG-79">
            <mxGeometry width="100" height="100" relative="1" as="geometry">
              <Array as="points" />
            </mxGeometry>
          </mxCell>
        </UserObject>
        <UserObject label="" lucidchartObjectId="hvVbMuhwRi4e" id="6CLfu5O3llIRonwA3SgG-102">
          <mxCell style="html=1;jettySize=18;whiteSpace=wrap;fontSize=13;strokeColor=#5E5E5E;strokeWidth=1.5;rounded=1;arcSize=12;edgeStyle=orthogonalEdgeStyle;startArrow=none;;endArrow=block;endFill=1;;exitX=0.5;exitY=1.006;exitPerimeter=0;" edge="1" parent="WIyWlLk6GJQsqaUBKTNV-1" source="6CLfu5O3llIRonwA3SgG-93">
            <mxGeometry width="100" height="100" relative="1" as="geometry">
              <Array as="points" />
              <mxPoint x="695" y="170" as="targetPoint" />
            </mxGeometry>
          </mxCell>
        </UserObject>
        <mxCell id="6CLfu5O3llIRonwA3SgG-103" value="0..*" style="text;html=1;resizable=0;labelBackgroundColor=#ffffff;align=center;verticalAlign=middle;;fontSize=13;" vertex="1" parent="6CLfu5O3llIRonwA3SgG-102">
          <mxGeometry x="-1" relative="1" as="geometry" />
        </mxCell>
        <mxCell id="6CLfu5O3llIRonwA3SgG-104" value="0..*" style="text;html=1;resizable=0;labelBackgroundColor=#ffffff;align=center;verticalAlign=middle;;fontSize=13;" vertex="1" parent="6CLfu5O3llIRonwA3SgG-102">
          <mxGeometry x="1" relative="1" as="geometry" />
        </mxCell>
      </root>
    </mxGraphModel>
  </diagram>
</mxfile>
